Coordinates
version=1
nRows=4
nColumns=107
inDegrees=yes

Units are S.I. units (second, meters, Newtons, ...)
If the header above contains a line with 'inDegrees', this indicates whether rotational values are in degrees (yes) or radians (no).

endheader
time	sternoclavicular_r2	sternoclavicular_r3	unrotscap_r3	unrotscap_r2	acromioclavicular_r2	acromioclavicular_r3	acromioclavicular_r1	unrothum_r1	unrothum_r3	unrothum_r2	elv_angle	shoulder_elv	shoulder1_r2	shoulder_rot	elbow_flexion	pro_sup	deviation	flexion	proximal_distal_r1	proximal_distal_r3	cmc_flexion	cmc_abduction	mp_flexion	ip_flexion	mcp2_flexion	mcp2_abduction	pm2_flexion	md2_flexion	mcp3_flexion	mcp3_abduction	pm3_flexion	md3_flexion	mcp4_flexion	mcp4_abduction	pm4_flexion	md4_flexion	mcp5_flexion	mcp5_abduction	pm5_flexion	md5_flexion	bicpt_tx	bicpt_ty	bicpt_tz	bicpt2_tx	bicpt2_ty	bicpt2_tz	ptpt_tx	ptpt_ty	ptpt_tz	FCUpt_tx	FCUpt_ty	FCUpt_tz	EDCpt_tx	EDCpt_ty	EDCpt_tz	APLpt_tx	APLpt_ty	APLpt_tz	FPLpt_tx	FPLpt_ty	FPLpt_tz	FPLpt2_tx	FPLpt2_ty	FPLpt2_tz	PEC1pt2_tx	PEC1pt2_ty	PEC1pt2_tz	PEC1pt3_tx	PEC1pt3_ty	PEC1pt3_tz	PEC2pt2_tx	PEC2pt2_ty	PEC2pt2_tz	PEC2pt3_tx	PEC2pt3_ty	PEC2pt3_tz	PEC3pt2_tx	PEC3pt2_ty	PEC3pt2_tz	PEC3pt3_tx	PEC3pt3_ty	PEC3pt3_tz	DELT2pt2a_tx	DELT2pt2a_ty	DELT2pt2a_tz	DELT2pt2_tx	DELT2pt2_ty	DELT2pt2_tz	LAT1pt2_tx	LAT1pt2_ty	LAT1pt2_tz	LAT1pt3_tx	LAT1pt3_ty	LAT1pt3_tz	LAT2pt2_tx	LAT2pt2_ty	LAT2pt2_tz	LAT2pt3_tx	LAT2pt3_ty	LAT2pt3_tz	LAT3pt2_tx	LAT3pt2_ty	LAT3pt2_tz	LAT3pt3_tx	LAT3pt3_ty	LAT3pt3_tz
      0.50000000	     -0.31637035	      0.13399955	     -0.13399955	      0.31637035	     -0.06405856	      0.51769876	      0.23270203	     -0.23270203	     -0.51769876	      0.06405856	    101.47895438	     74.90349329	     -1.77114188	    -35.71203069	     30.34580007	     84.75042484	      0.35605507	     -0.44844941	      0.37945046	     -0.22422470	     39.61326574	    -21.72116642	      9.89671441	      2.20970974	     87.84314042	      8.38535336	     82.60025339	     73.82833078	     88.94839370	     -2.48167777	     84.52484774	     56.93505400	     77.26765767	    -12.39816202	    100.57885865	     38.39148639	     68.65198453	    -13.80976961	     98.26457428	      5.54380789	      0.00090374	     -0.03107809	     -0.00486023	      0.01436729	     -0.01844359	     -0.00128893	      0.00128790	     -0.06894918	     -0.00687710	      0.01259470	     -0.18227983	      0.00004997	     -0.01017003	      0.00350968	     -0.00071752	      0.00029041	      0.00011616	      0.00058082	      0.00037172	      0.00111517	      0.00062728	     -0.00001092	     -0.00011855	     -0.00014226	      0.00245517	      0.00861391	      0.00599228	     -0.00803133	      0.01939170	     -0.01839298	      0.00245517	      0.00861391	      0.00599228	      0.00054097	      0.01797685	     -0.00944617	      0.00389982	      0.00479009	      0.01584880	      0.00000000	      0.00750161	      0.00000000	     -0.00703261	     -0.03249982	     -0.00618382	      0.02119195	     -0.00095638	     -0.01046717	     -0.00087387	      0.01464781	     -0.00599228	      0.00241356	      0.02113945	     -0.01747750	     -0.00586745	      0.01269199	     -0.00536809	     -0.01223425	      0.02679883	     -0.03000304	     -0.02297042	      0.01419006	     -0.00719906	     -0.01523039	      0.03096014	     -0.03749339
      0.53333333	     -0.31602232	      0.13385214	     -0.13385214	      0.31602232	     -0.06398809	      0.51712924	      0.23244604	     -0.23244604	     -0.51712924	      0.06398809	    101.55559869	     74.82109310	     -1.77247957	    -36.13743988	     30.42068440	     85.07518365	      0.35172502	     -0.45317015	      0.37608294	     -0.22658507	     39.48610580	    -21.70569340	      9.93576409	      2.47280255	     87.78171464	      8.40859502	     82.66635852	     73.45180394	     88.98277367	     -2.38255930	     84.60302320	     56.83240076	     77.19831986	    -12.37412522	    100.69601256	     38.46888216	     68.48154419	    -13.80418911	     98.40773016	      5.55660523	      0.00090622	     -0.03108668	     -0.00486161	      0.01433454	     -0.01846393	     -0.00123382	      0.00126390	     -0.06896469	     -0.00690326	      0.01263189	     -0.18226893	      0.00005864	     -0.01020900	      0.00352739	     -0.00072775	      0.00029168	      0.00011667	      0.00058335	      0.00037334	      0.00112003	      0.00063002	     -0.00001106	     -0.00012096	     -0.00014515	      0.00245247	      0.00860443	      0.00598569	     -0.00802249	      0.01937037	     -0.01837275	      0.00245247	      0.00860443	      0.00598569	      0.00054038	      0.01795708	     -0.00943578	      0.00389666	      0.00478482	      0.01584092	      0.00000000	      0.00748500	      0.00000000	     -0.00702488	     -0.03246407	     -0.00617003	      0.02134697	     -0.00097153	     -0.01070213	     -0.00087291	      0.01463169	     -0.00598569	      0.00241090	      0.02111619	     -0.01745827	     -0.00586099	      0.01267803	     -0.00536218	     -0.01222079	      0.02676935	     -0.02997003	     -0.02294515	      0.01417445	     -0.00719114	     -0.01521364	      0.03092608	     -0.03745215
      0.56666667	     -0.31610268	      0.13388618	     -0.13388618	      0.31610268	     -0.06400436	      0.51726075	      0.23250515	     -0.23250515	     -0.51726075	      0.06400436	    101.52607492	     74.84011953	     -1.77196428	    -36.00271158	     30.42507701	     84.99450757	      0.35534171	     -0.44557647	      0.37889778	     -0.22278824	     39.50014411	    -21.67829725	      9.78228945	      2.71053566	     87.78426160	      8.42060438	     82.77718448	     73.16798372	     89.01219730	     -2.35817030	     84.59066958	     56.84506270	     77.13064608	    -12.37475695	    100.73851607	     38.24257734	     68.48563277	    -13.80347293	     98.31073959	      5.56177630	      0.00090637	     -0.03108718	     -0.00486169	      0.01434269	     -0.01846512	     -0.00124752	      0.00126986	     -0.06896084	     -0.00689676	      0.01262265	     -0.18227164	      0.00005648	     -0.01019932	      0.00352299	     -0.00072521	      0.00028962	      0.00011585	      0.00057924	      0.00037071	      0.00111214	      0.00062558	     -0.00001104	     -0.00012069	     -0.00014483	      0.00245309	      0.00860662	      0.00598721	     -0.00802453	      0.01937529	     -0.01837742	      0.00245309	      0.00860662	      0.00598721	      0.00054051	      0.01796164	     -0.00943818	      0.00389739	      0.00478603	      0.01584274	      0.00000000	      0.00748884	      0.00000000	     -0.00702666	     -0.03247232	     -0.00617321	      0.02129803	     -0.00096673	     -0.01062760	     -0.00087314	      0.01463541	     -0.00598721	      0.00241152	      0.02112156	     -0.01746271	     -0.00586248	      0.01268125	     -0.00536355	     -0.01222390	      0.02677615	     -0.02997765	     -0.02295099	      0.01417806	     -0.00719297	     -0.01521750	      0.03093394	     -0.03746167
      0.60000000	     -0.31817605	      0.13476436	     -0.13476436	      0.31817605	     -0.06442418	      0.52065354	      0.23403018	     -0.23403018	     -0.52065354	      0.06442418	    100.97379041	     75.33100793	     -1.76232510	    -33.43768044	     30.20840230	     83.20275758	      0.37108715	     -0.42255648	      0.39090456	     -0.21127824	     39.49061984	    -21.79850517	      9.40316301	      2.75337906	     87.77886055	      8.38982341	     83.12623909	     71.70837131	     89.09541691	     -2.39961639	     84.73352252	     55.38578614	     77.61357513	    -12.48137574	    100.07098040	     38.40825611	     69.13417362	    -13.82458309	     97.20094241	      5.59638605	      0.00089920	     -0.03106234	     -0.00485769	      0.01452013	     -0.01840626	     -0.00154960	      0.00140226	     -0.06887523	     -0.00675243	      0.01241787	     -0.18233135	      0.00000969	     -0.00998431	      0.00342571	     -0.00066951	      0.00028280	      0.00011312	      0.00056561	      0.00036199	      0.00108597	      0.00061086	     -0.00001105	     -0.00012088	     -0.00014505	      0.00246919	      0.00866307	      0.00602649	     -0.00807716	      0.01950238	     -0.01849796	      0.00246919	      0.00866307	      0.00602649	      0.00054406	      0.01807946	     -0.00950009	      0.00391617	      0.00481743	      0.01588944	      0.00000000	      0.00758806	      0.00000000	     -0.00707275	     -0.03268531	     -0.00625561	      0.02032303	     -0.00087604	     -0.00924197	     -0.00087886	      0.01473141	     -0.00602649	      0.00242733	      0.02126010	     -0.01757725	     -0.00590093	      0.01276443	     -0.00539873	     -0.01230408	      0.02695178	     -0.03017428	     -0.02310153	      0.01427105	     -0.00724015	     -0.01531732	      0.03113684	     -0.03770739
